<svg xmlns="http://www.w3.org/2000/svg" viewBox="0 0 512 512"><defs>
 <radialGradient id="aura" cx="50%" cy="50%" r="50%"><stop offset="0" stop-color="#ff9d2e" stop-opacity=".72"/><stop offset=".42" stop-color="#ff9d2e" stop-opacity=".23"/><stop offset="1" stop-color="#ff9d2e" stop-opacity="0"/></radialGradient>
 <radialGradient id="shadow" cx="50%" cy="50%" r="60%"><stop offset="0" stop-color="#000" stop-opacity=".65"/><stop offset="1" stop-color="#000" stop-opacity="0"/></radialGradient>
</defs><circle cx="256" cy="252" r="182" fill="url(#aura)" opacity="0.48"/><ellipse cx="256" cy="420" rx="142" ry="30" fill="url(#shadow)"/><g fill="#2a2018" stroke="none" transform="translate(0 5)">
  <rect x="132" y="343" width="248" height="12" rx="6" transform="rotate(-4 256 349)"/>
  <rect x="111" y="339" width="54" height="20" rx="8" transform="rotate(-4 138 349)"/>
  <rect x="168" y="332" width="9" height="32" rx="4" fill="#c58a37" transform="rotate(-4 172 348)"/>
 </g><g fill="#111111" stroke="none" transform="translate(0 5) scale(1 0.99)">
  <path d="M207 251 C215 231 236 221 256 221 C279 221 299 234 307 255 C323 296 313 348 294 374 C276 391 236 391 218 374 C198 347 191 295 207 251 Z"/>
  <path d="M205 266 C180 281 168 313 178 341 C185 358 205 354 213 336 C219 316 221 286 205 266 Z"/>
  <path d="M307 266 C333 281 345 313 334 341 C327 358 307 354 299 336 C292 316 291 286 307 266 Z"/>
  <path d="M154 365 C170 337 213 335 236 359 C243 368 238 386 223 392 C196 402 164 394 154 365 Z"/>
  <path d="M358 365 C342 337 299 335 276 359 C269 368 274 386 289 392 C316 402 348 394 358 365 Z"/>
  <path d="M218 365 C236 354 276 354 294 365 C286 385 226 385 218 365 Z"/>
 </g><g fill="#111111" stroke="none" transform="translate(0 9)">
  <path d="M177 174 C175 132 206 101 252 96 C300 92 335 121 337 166 C361 179 363 215 341 239 C332 250 319 257 303 259 C292 276 274 284 255 284 C235 284 218 276 207 260 C188 258 173 249 164 235 C147 209 153 184 177 174 Z"/>
  <path d="M178 160 C155 171 143 195 150 222 C159 213 167 202 173 188 C169 208 170 232 181 249 C190 228 194 202 191 177 Z"/>
  <path d="M334 160 C357 171 369 195 362 222 C353 213 345 202 339 188 C343 208 342 232 331 249 C322 228 318 202 321 177 Z"/>
  <path d="M247 101 C225 116 207 151 204 194 C218 176 235 158 252 145 C244 162 239 191 240 219 C254 198 263 163 263 130 Z"/>
  <path d="M265 101 C287 116 305 151 308 194 C294 176 277 158 260 145 C268 162 273 191 272 219 C258 198 249 163 249 130 Z"/>
  <path d="M202 170 C212 136 235 122 256 122 C278 122 300 137 310 170 C317 205 300 239 256 242 C212 239 195 205 202 170 Z"/>
  <path d="M197 161 C219 150 292 150 315 161 L312 178 C286 169 226 169 200 178 Z" fill="#9c2a1f"/>
  <path d="M250 161 C254 153 263 153 267 161 L261 181 L254 181 Z" fill="#9c2a1f"/>
 </g><g fill="none" stroke="#fff2dc" stroke-width="7" stroke-linecap="round" transform="translate(0 9)"><path d="M211 208 C222 205 235 205 244 208"/><path d="M268 208 C279 205 292 205 301 208"/></g><g fill="#9c2a1f" stroke="none" transform="translate(0 4)">
  <path d="M195 235 C215 222 240 217 260 218 C287 219 309 230 321 245 C302 259 267 266 235 261 C216 258 200 250 195 235 Z"/>
  <path d="M206 252 C232 260 276 262 308 250 C299 268 272 279 240 275 C220 272 207 264 206 252 Z"/>
  <path d="M296 252 C330 252 361 266 388 288 C358 284 333 276 306 274 Z"/>
  <path d="M292 270 C322 283 350 306 373 333 C343 319 316 304 295 292 Z"/>
 </g><g opacity=".55"><path d="M377 255 C391 242 410 253 397 268 C410 276 394 292 379 280" fill="none" stroke="#ffb347" stroke-width="4" stroke-linecap="round"/></g></svg>