<?xml version="1.0" encoding="UTF-8"?>
<svg id="Layer_1" xmlns="http://www.w3.org/2000/svg" version="1.1" viewBox="0 0 1273.127 1273.127">
  <!-- Generator: Adobe Illustrator 30.6.0, SVG Export Plug-In . SVG Version: 2.1.4 Build 109)  -->
  <rect id="canvas-frame" width="1273.127" height="1273.127" style="fill: #fff; opacity: 0;"/>
  <g id="Generative_Object">
    
    
    
    
    
    
    
    
    
    
    
    
    
    
    
    
    
    
    
    
    
    
    
    
    
    
    
    
    
    
    
    
    
    
    
    
    
    
    
    
    
    
    
    
    
    
    
    
    
    
    
    
    
    
    
    
    
    
    
    
    
    
    
    
    
    
    
    
    
    
    
    
    
    
    
    
    <rect id="base-bg" x="10.819" y="10.213" width="1254" height="1254" style="display: none; fill: #fdfdfd;"/>
    
    
    
    <g>
      
      <g>
        <polygon id="leg-L" points="464.537 1223.801 465.15 1224.413 464.537 1225.459 463.925 1224.413 464.537 1223.801" style="display: none; fill: #fdfdfd;"/>
        <g>
          <g>
            
            
            <g>
              
              
              
              
              
              
              
              
              
              
              
              
              <g>
                
                <g>
                  
                  
                  
                  
                  
                  
                  
                  
                  
                  
                  <circle id="head248" data-name="head" cx="806.816" cy="132.674" r="1.364" style="display: none; fill: #0e0a0c;"/>
                  
                  <polygon id="head250" data-name="head" points="442.494 231.879 442.516 232.678 442.516 233.505 442.494 234.304 442.472 233.505 442.472 232.678 442.494 231.879" style="display: none; fill: #0e0a0c;"/>
                  <rect id="head251" data-name="head" x="689.432" y="125.505" width=".866" height=".866" transform="translate(113.005 524.695) rotate(-45)" style="display: none; fill: #0e0a0c;"/>
                  
                  <rect id="head253" data-name="head" x="787.401" y="189.185" width=".866" height=".866" transform="translate(96.671 612.621) rotate(-45)" style="display: none; fill: #0e0a0c;"/>
                  <rect id="head254" data-name="head" x="591.464" y="124.281" width=".866" height=".866" transform="translate(85.177 455.062) rotate(-45)" style="display: none; fill: #0e0a0c;"/>
                  <rect id="head255" data-name="head" x="395.526" y="255.314" width=".866" height=".866" transform="translate(-64.867 354.892) rotate(-45)" style="display: none; fill: #0e0a0c;"/>
                  <rect id="head256" data-name="head" x="844.958" y="250.415" width=".866" height=".866" transform="translate(70.233 671.253) rotate(-45)" style="display: none; fill: #0e0a0c;"/>
                  
                  <rect id="head258" data-name="head" x="843.733" y="247.966" width=".866" height=".866" transform="translate(71.606 669.67) rotate(-45)" style="display: none; fill: #0e0a0c;"/>
                  <rect id="head259" data-name="head" x="688.208" y="123.056" width=".866" height=".866" transform="translate(114.378 523.112) rotate(-45)" style="display: none; fill: #0e0a0c;"/>
                  
                  
                  <rect id="head262" data-name="head" x="712.7" y="105.912" width=".866" height=".866" transform="translate(133.675 535.409) rotate(-45)" style="display: none; fill: #0e0a0c;"/>
                  <rect id="head263" data-name="head" x="713.925" y="103.462" width=".866" height=".866" transform="translate(135.765 535.557) rotate(-45)" style="display: none; fill: #0e0a0c;"/>
                  <rect id="head264" data-name="head" x="792.3" y="233.271" width=".866" height=".866" transform="translate(66.932 628.997) rotate(-45)" style="display: none; fill: #0e0a0c;"/>
                </g>
              </g>
            </g>
            <g>
              
              <rect id="streamers8" data-name="streamers" x="390.628" y="485.54" width=".866" height=".866" transform="translate(-229.096 418.86) rotate(-45)" style="display: none; fill: #ad231b;"/>
            </g>
            <g>
              
              <rect id="streamers10" data-name="streamers" x="366.136" y="423.085" width=".866" height=".866" transform="translate(-192.107 383.249) rotate(-45)" style="display: none; fill: #ad231b;"/>
              <rect id="streamers11" data-name="streamers" x="368.585" y="421.861" width=".866" height=".866" transform="translate(-190.524 384.622) rotate(-45)" style="display: none; fill: #ad231b;"/>
            </g>
            <g>
              
              
              <circle id="streamers14" data-name="streamers" cx="403.919" cy="469.441" r="1.054" style="display: none; fill: #401e20;"/>
            </g>
          </g>
          <g>
            
            <g>
              
              <g>
                
                
                
                <g>
                  
                  <g>
                    
                    
                    
                    
                    <rect id="head291" data-name="head" x="487.372" y="282.255" width=".866" height=".866" transform="translate(-57.016 427.728) rotate(-45)" style="display: none; fill: #db3720;"/>
                    <rect id="head292" data-name="head" x="442.061" y="334.913" width=".866" height=".866" transform="translate(-107.522 411.111) rotate(-45)" style="display: none; fill: #401e20;"/>
                    <circle id="head293" data-name="head" cx="440.657" cy="338.408" r="1.054" style="display: none; fill: #401e20;"/>
                  </g>
                </g>
              </g>
            </g>
            <g>
              
              
              
              
              
              
              
              
              
              
              
              
              
              
              <g id="arm-R-outline">
                <path id="arm-R" d="M770.168,728.123c-5.023,3.435-9.332,7.785-16.468,10.221-3.056-8.312-6.568-17.286-5.586-26.433l2.357-21.952,10.742-28.36c1.818,1.172.917,3.219.393,4.957l-7.922,26.246c-2.049,6.79,3.26,26.67,14.261,32.469,1.302.687,2.146,1.18,2.223,2.852Z" style="fill: #0e0a0c; stroke: #0e0a0c; stroke-linecap: round; stroke-linejoin: round; stroke-width: 14px;"/>
                <path id="arm-R1" data-name="arm-R" d="M817.831,725.225l11.977,24.998,15.203,42.507c-19.151.395-38.724,4.611-52.501,16.62-9.67-17.123-15.159-38.073-18.822-55.008-.667-.753-1.256-1.67-1.14-2.723,1.303-11.829,32.047-24.362,42.4-27.895l2.883,1.501Z" style="fill: #0e0a0c; stroke: #0e0a0c; stroke-linecap: round; stroke-linejoin: round; stroke-width: 14px;"/>
                <path id="arm-R2" data-name="arm-R" d="M817.605,848.337l-2.776-.258c-2.735-5.6-5.081-11.302-7.036-17.106l2.3-2.504c12.44-8.597,27.954-12.074,43.226-11.757,4.025.083,5.762,2.752,6.685,6.11l5.638,20.52c-13.38-7.517-34.53-2.043-48.036,4.995Z" style="fill: #0e0a0c; stroke: #0e0a0c; stroke-linecap: round; stroke-linejoin: round; stroke-width: 14px;"/>
                <path id="arm-R3" data-name="arm-R" d="M807.995,825.185c-5.496.855-12.983-9.209-10.822-14.27,12.13-11.589,48.194-19.609,53.845-12.284,3.314,4.296,4.505,9.532,5.307,15.588-17.771-1.49-33.596,2.996-48.33,10.966Z" style="fill: #0e0a0c; stroke: #0e0a0c; stroke-linecap: round; stroke-linejoin: round; stroke-width: 14px;"/>
                <path id="arm-R4" data-name="arm-R" d="M817.831,725.225c-16.021,6.329-38.634,13.794-44.143,29.117-1.715-.718-2.372-2.02-3.125-3.815l-5.456-12.989c14.489-11.014,30.025-19.108,46.514-26.985l6.21,14.671Z" style="fill: #0e0a0c; stroke: #0e0a0c; stroke-linecap: round; stroke-linejoin: round; stroke-width: 14px;"/>
                <path id="arm-R5" data-name="arm-R" d="M810.092,828.47c.013,3.299.745,6.102,2.694,8.637l4.819,11.23-8.608,6.466c-3.533-11.246-11.133-14.864-5.22-22.686,1.254-1.659,4.127-2.134,6.316-3.648Z" style="fill: #0e0a0c; stroke: #0e0a0c; stroke-linecap: round; stroke-linejoin: round; stroke-width: 14px;"/>
                <path id="arm-R6" data-name="arm-R" d="M807.995,825.185l-8.706,7.616-5.692-10.979c-1.217-2.347-1.992-4.315-.877-6.858.672-1.53,2.872-2.54,4.452-4.049,2.808,5.424,6.212,10.21,10.822,14.27Z" style="fill: #0e0a0c; stroke: #0e0a0c; stroke-linecap: round; stroke-linejoin: round; stroke-width: 14px;"/>
                <path id="arm-R7" data-name="arm-R" d="M845.03,945.011c-7.359-6.097,5.594-19.135,5.277-27.649-.521-13.981-10.599-31.559-17.771-29.532-2.783.786-4.343,3.507-4.736,6.708l-2.527,20.578c-.398,3.24-2.976,5.441-5.871,5.867-3.16.465-6.363-1.689-6.931-5.38l-4.252-27.653c-1.743-11.335,1.408-22.221,5.939-32.862,14.424-10.22,46.456-17.967,50.942-5.308,5.566,15.708,10.836,31.407,12.829,48.214,1.693,14.277-1.973,35.542-14.968,42.128,4.849-9.703,12.322-17.873,9.793-29.394-4.738,12.708-10.057,24.976-19.628,34.88-2.207,2.284-6.309.884-8.096-.597Z" style="fill: #0e0a0c; stroke: #0e0a0c; stroke-linecap: round; stroke-linejoin: round; stroke-width: 14px;"/>
              </g>
              <path id="arm-R8" data-name="arm-R" d="M770.168,728.123c-5.023,3.435-9.332,7.785-16.468,10.221-3.056-8.312-6.568-17.286-5.586-26.433l2.357-21.952,10.742-28.36c1.818,1.172.917,3.219.393,4.957l-7.922,26.246c-2.049,6.79,3.26,26.67,14.261,32.469,1.302.687,2.146,1.18,2.223,2.852Z" style="fill: #161b38;"/>
              
              
              
              
              
              
              
              
              
              
              
              
              <path id="arm-R9" data-name="arm-R" d="M747.856,735.118c-2.386-.216-5.053-2.133-5.732-4.939-.749-3.095-.165-5.856.163-8.361,1.032-.2,2.173.321,2.561,1.801l3.008,11.499Z" style="fill: #161b38;"/>
              
              
              <polygon id="leg-R26" data-name="leg-R" points="686.812 922.544 686.828 920.345 695.329 919.093 695.4 920.87 686.812 922.544" style="display: none; fill: #161b38;"/>
              <g>
                
                <g>
                  
                  
                  
                  
                  
                  
                  
                  
                  
                  
                  <rect id="leg-L29" data-name="leg-L" x="499.618" y="1023.144" width=".866" height=".866" transform="translate(-577.317 653.388) rotate(-45)" style="display: none; fill: #161b38;"/>
                  <rect id="leg-L30" data-name="leg-L" x="598.811" y="1064.781" width=".866" height=".866" transform="translate(-577.705 735.724) rotate(-45)" style="display: none; fill: #161b38;"/>
                  
                </g>
              </g>
              
              
              <g>
                
                
                <rect id="leg-R46" data-name="leg-R" x="663.716" y="996.203" width=".866" height=".866" transform="translate(-510.203 761.532) rotate(-45)" style="display: none; fill: #0e0a0c;"/>
              </g>
              
              <g>
                
                <polygon id="arm-L9" data-name="arm-L" points="544.29 735.773 545.142 735.773 545.965 735.794 545.142 735.815 544.29 735.815 543.466 735.794 544.29 735.773" style="display: none; fill: #0e0a0c;"/>
              </g>
            </g>
            <g>
              
              
              <path id="arm-R10" data-name="arm-R" d="M817.831,725.225l11.977,24.998,15.203,42.507c-19.151.395-38.724,4.611-52.501,16.62-9.67-17.123-15.159-38.073-18.822-55.008-.667-.753-1.256-1.67-1.14-2.723,1.303-11.829,32.047-24.362,42.4-27.895l2.883,1.501Z" style="fill: #e89359;"/>
              
              <path id="arm-R11" data-name="arm-R" d="M817.605,848.337l-2.776-.258c-2.735-5.6-5.081-11.302-7.036-17.106l2.3-2.504c12.44-8.597,27.954-12.074,43.226-11.757,4.025.083,5.762,2.752,6.685,6.11l5.638,20.52c-13.38-7.517-34.53-2.043-48.036,4.995Z" style="fill: #db3720;"/>
              <path id="arm-R12" data-name="arm-R" d="M807.995,825.185c-5.496.855-12.983-9.209-10.822-14.27,12.13-11.589,48.194-19.609,53.845-12.284,3.314,4.296,4.505,9.532,5.307,15.588-17.771-1.49-33.596,2.996-48.33,10.966Z" style="fill: #db3720;"/>
              
              <path id="arm-R13" data-name="arm-R" d="M817.831,725.225c-16.021,6.329-38.634,13.794-44.143,29.117-1.715-.718-2.372-2.02-3.125-3.815l-5.456-12.989c14.489-11.014,30.025-19.108,46.514-26.985l6.21,14.671Z" style="fill: #925b3e;"/>
              
              <path id="arm-R14" data-name="arm-R" d="M810.092,828.47c.013,3.299.745,6.102,2.694,8.637l4.819,11.23-8.608,6.466c-3.533-11.246-11.133-14.864-5.22-22.686,1.254-1.659,4.127-2.134,6.316-3.648Z" style="fill: #ad231b;"/>
              
              
              <path id="arm-R15" data-name="arm-R" d="M807.995,825.185l-8.706,7.616-5.692-10.979c-1.217-2.347-1.992-4.315-.877-6.858.672-1.53,2.872-2.54,4.452-4.049,2.808,5.424,6.212,10.21,10.822,14.27Z" style="fill: #ad231b;"/>
              
              <path id="arm-R16" data-name="arm-R" d="M845.03,945.011c-7.359-6.097,5.594-19.135,5.277-27.649-.521-13.981-10.599-31.559-17.771-29.532-2.783.786-4.343,3.507-4.736,6.708l-2.527,20.578c-.398,3.24-2.976,5.441-5.871,5.867-3.16.465-6.363-1.689-6.931-5.38l-4.252-27.653c-1.743-11.335,1.408-22.221,5.939-32.862,14.424-10.22,46.456-17.967,50.942-5.308,5.566,15.708,10.836,31.407,12.829,48.214,1.693,14.277-1.973,35.542-14.968,42.128,4.849-9.703,12.322-17.873,9.793-29.394-4.738,12.708-10.057,24.976-19.628,34.88-2.207,2.284-6.309.884-8.096-.597Z" style="fill: #e89359;"/>
              <g>
                
                
                
                
                
                
                
                
                
                
                
                
                
                
                
                
                
                
                <polygon id="torso73" data-name="torso" points="680.68 784.169 678.224 784.172 679.459 782.869 680.68 784.169" style="display: none; fill: #401e20;"/>
                
                
                
                
                
                
                
                
              </g>
            </g>
            <g>
              
              
              
              
              
              
              
              
              
              
              
              
              
              
              
              <g>
                
                
                
                
                <rect id="head319" data-name="head" x="762.909" y="332.464" width=".866" height=".866" transform="translate(-11.816 637.268) rotate(-45)" style="display: none; fill: #372b3d;"/>
              </g>
              
              
            </g>
          </g>
        </g>
      </g>
    </g>
    <g>
      
      <circle id="head336" data-name="head" cx="821.511" cy="512.302" r="1.364" style="display: none; fill: #140f1f;"/>
      
    </g>
  </g>
</svg>