<?xml version="1.0" encoding="UTF-8"?>
<svg id="Layer_1" xmlns="http://www.w3.org/2000/svg" version="1.1" viewBox="0 0 1273.127 1273.127">
  <!-- Generator: Adobe Illustrator 30.6.0, SVG Export Plug-In . SVG Version: 2.1.4 Build 109)  -->
  <rect id="canvas-frame" width="1273.127" height="1273.127" style="fill: #fff; opacity: 0;"/>
  <g id="Generative_Object">
    
    
    
    
    
    
    
    
    
    
    
    
    
    
    
    
    
    
    
    
    
    
    
    
    
    
    
    
    
    
    
    
    
    
    
    
    
    
    
    
    
    
    
    
    
    
    
    
    
    
    
    
    
    
    
    
    
    
    
    
    
    
    
    
    
    
    
    
    
    
    
    
    
    
    
    
    <rect id="base-bg" x="10.819" y="10.213" width="1254" height="1254" style="display: none; fill: #fdfdfd;"/>
    
    
    
    <g>
      
      <g>
        <polygon id="leg-L" points="464.537 1223.801 465.15 1224.413 464.537 1225.459 463.925 1224.413 464.537 1223.801" style="display: none; fill: #fdfdfd;"/>
        <g>
          <g>
            
            
            <g>
              
              
              
              
              
              
              
              
              
              
              
              
              <g>
                
                <g>
                  
                  
                  
                  
                  
                  
                  
                  
                  
                  
                  <circle id="head248" data-name="head" cx="806.816" cy="132.674" r="1.364" style="display: none; fill: #0e0a0c;"/>
                  
                  <polygon id="head250" data-name="head" points="442.494 231.879 442.516 232.678 442.516 233.505 442.494 234.304 442.472 233.505 442.472 232.678 442.494 231.879" style="display: none; fill: #0e0a0c;"/>
                  <rect id="head251" data-name="head" x="689.432" y="125.505" width=".866" height=".866" transform="translate(113.005 524.695) rotate(-45)" style="display: none; fill: #0e0a0c;"/>
                  
                  <rect id="head253" data-name="head" x="787.401" y="189.185" width=".866" height=".866" transform="translate(96.671 612.621) rotate(-45)" style="display: none; fill: #0e0a0c;"/>
                  <rect id="head254" data-name="head" x="591.464" y="124.281" width=".866" height=".866" transform="translate(85.177 455.062) rotate(-45)" style="display: none; fill: #0e0a0c;"/>
                  <rect id="head255" data-name="head" x="395.526" y="255.314" width=".866" height=".866" transform="translate(-64.867 354.892) rotate(-45)" style="display: none; fill: #0e0a0c;"/>
                  <rect id="head256" data-name="head" x="844.958" y="250.415" width=".866" height=".866" transform="translate(70.233 671.253) rotate(-45)" style="display: none; fill: #0e0a0c;"/>
                  
                  <rect id="head258" data-name="head" x="843.733" y="247.966" width=".866" height=".866" transform="translate(71.606 669.67) rotate(-45)" style="display: none; fill: #0e0a0c;"/>
                  <rect id="head259" data-name="head" x="688.208" y="123.056" width=".866" height=".866" transform="translate(114.378 523.112) rotate(-45)" style="display: none; fill: #0e0a0c;"/>
                  
                  
                  <rect id="head262" data-name="head" x="712.7" y="105.912" width=".866" height=".866" transform="translate(133.675 535.409) rotate(-45)" style="display: none; fill: #0e0a0c;"/>
                  <rect id="head263" data-name="head" x="713.925" y="103.462" width=".866" height=".866" transform="translate(135.765 535.557) rotate(-45)" style="display: none; fill: #0e0a0c;"/>
                  <rect id="head264" data-name="head" x="792.3" y="233.271" width=".866" height=".866" transform="translate(66.932 628.997) rotate(-45)" style="display: none; fill: #0e0a0c;"/>
                </g>
              </g>
            </g>
            <g>
              
              <rect id="streamers8" data-name="streamers" x="390.628" y="485.54" width=".866" height=".866" transform="translate(-229.096 418.86) rotate(-45)" style="display: none; fill: #ad231b;"/>
            </g>
            <g>
              
              <rect id="streamers10" data-name="streamers" x="366.136" y="423.085" width=".866" height=".866" transform="translate(-192.107 383.249) rotate(-45)" style="display: none; fill: #ad231b;"/>
              <rect id="streamers11" data-name="streamers" x="368.585" y="421.861" width=".866" height=".866" transform="translate(-190.524 384.622) rotate(-45)" style="display: none; fill: #ad231b;"/>
            </g>
            <g>
              
              
              <circle id="streamers14" data-name="streamers" cx="403.919" cy="469.441" r="1.054" style="display: none; fill: #401e20;"/>
            </g>
          </g>
          <g>
            
            <g>
              
              <g>
                
                
                
                <g>
                  
                  <g>
                    
                    
                    
                    
                    <rect id="head291" data-name="head" x="487.372" y="282.255" width=".866" height=".866" transform="translate(-57.016 427.728) rotate(-45)" style="display: none; fill: #db3720;"/>
                    <rect id="head292" data-name="head" x="442.061" y="334.913" width=".866" height=".866" transform="translate(-107.522 411.111) rotate(-45)" style="display: none; fill: #401e20;"/>
                    <circle id="head293" data-name="head" cx="440.657" cy="338.408" r="1.054" style="display: none; fill: #401e20;"/>
                  </g>
                </g>
              </g>
            </g>
            <g>
              
              
              
              
              
              
              
              
              
              
              
              <g id="arm-L-outline">
                <path id="arm-L" d="M505.229,636.205c1.257,13.116,5.499,27.221,11.958,39.571,4.916,9.4,7.169,17.815,7.524,28.553.387,11.691,2.002,24.018-4.534,35.161l-19.845-13.633c4.152-.009,7.814-1.473,10.992-4.803,9.151-9.585,10.372-23.818,5.442-36.317-5.813-14.737-11.365-29.187-13.504-45.102-.695-5.173.115-9.84-1.101-15.417,4.483,3.606,2.716,8.317,3.068,11.987Z" style="fill: #0e0a0c; stroke: #0e0a0c; stroke-linecap: round; stroke-linejoin: round; stroke-width: 14px;"/>
                <path id="arm-L1" data-name="arm-L" d="M404.176,915.214c-1.272.091-1.737-.958-1.395-3.146.384,1.582-.013,2.597-1.191,3.044-.468,6.705,3.377,11.584,5.488,19.398-4.989-1.99-6.462-7.65-7.724-12.294-3.313-12.19-2.306-24.559.449-36.698,3.111-13.707,6.101-26.32,12.97-39.2,15.567-3.699,34.12-1.32,46.878,9.555,11.877,16.122,7.086,41.643,2.724,62.545-.556,2.666-4.228,3.841-6.291,3.346-2.214-.531-4.986-2.72-5.453-5.819l-3.317-21.999c-.402-2.666-2.136-4.877-3.986-5.487-9.086-2.998-19.013,18.746-18.21,31.361l7.236,18.53c1.521,3.896.121,7.756-3.746,9.368-3.648,1.521-6.418-.527-9.036-4.124-6.438-8.848-12.767-17.3-15.395-28.381Z" style="fill: #0e0a0c; stroke: #0e0a0c; stroke-linecap: round; stroke-linejoin: round; stroke-width: 14px;"/>
                <path id="arm-L2" data-name="arm-L" d="M501.768,755.171l-2.775,8.744c-3.416,15.666-8.174,30.14-16.251,45.296-14.619-11.128-32.611-15.972-52.52-15.927l12.867-38.403,14.482-30.478c.519-.813,1.45-1.976,2.061-1.717,10.152,4.293,38.228,17.003,41.758,26.374.842,2.237.85,3.701.377,6.109Z" style="fill: #0e0a0c; stroke: #0e0a0c; stroke-linecap: round; stroke-linejoin: round; stroke-width: 14px;"/>
                <path id="arm-L3" data-name="arm-L" d="M466.462,829.255c2.8,2.659,2.152,6.103-1.946,10.33-1.487,7.201-4.265,10.043-8.334,8.527-13.663-6.534-32.631-10.52-46.602-3.799l4.874-17.896c.55-2.021,1.831-7.169,4.537-7.672,16.767-2.55,33.986,1.472,47.47,10.51Z" style="fill: #0e0a0c; stroke: #0e0a0c; stroke-linecap: round; stroke-linejoin: round; stroke-width: 14px;"/>
                <path id="arm-L4" data-name="arm-L" d="M476.631,809.772l1.594,2.465c-1.165,4.326-7.165,15.446-12.263,12.456-14.213-7.797-29.642-11.171-46.646-9.479l2.91-11.571c3.405-13.542,37.588-5.262,54.406,6.13Z" style="fill: #0e0a0c; stroke: #0e0a0c; stroke-linecap: round; stroke-linejoin: round; stroke-width: 14px;"/>
                <path id="arm-L5" data-name="arm-L" d="M501.768,755.171c-3.155-7.168-7.517-12.836-14.657-16.277l-29.54-14.49,5.566-13.622c16.504,8.382,32.26,15.69,46.647,26.792l-8.016,17.598Z" style="fill: #0e0a0c; stroke: #0e0a0c; stroke-linecap: round; stroke-linejoin: round; stroke-width: 14px;"/>
                <path id="arm-L6" data-name="arm-L" d="M456.182,848.112c4.443-1.784,4.456-5.82,6.129-9.585,1.348-3.033,4.996-5.134,4.15-9.272,3.477,2.33,8.247,5.377,6.627,10.75-1.563,5.182-4.611,10.047-7.846,14.989l-9.06-6.881Z" style="fill: #0e0a0c; stroke: #0e0a0c; stroke-linecap: round; stroke-linejoin: round; stroke-width: 14px;"/>
                <path id="arm-L7" data-name="arm-L" d="M465.962,824.693c5.744-3.147,8.062-8.996,10.67-14.921,2.747,1.861,7.032,4.409,6.232,8.266-1.153,5.565-4.695,10.4-7.214,15.017-3.368-3.311-5.994-6.336-9.687-8.362Z" style="fill: #0e0a0c; stroke: #0e0a0c; stroke-linecap: round; stroke-linejoin: round; stroke-width: 14px;"/>
              </g>
              <path id="arm-L8" data-name="arm-L" d="M505.229,636.205c1.257,13.116,5.499,27.221,11.958,39.571,4.916,9.4,7.169,17.815,7.524,28.553.387,11.691,2.002,24.018-4.534,35.161l-19.845-13.633c4.152-.009,7.814-1.473,10.992-4.803,9.151-9.585,10.372-23.818,5.442-36.317-5.813-14.737-11.365-29.187-13.504-45.102-.695-5.173.115-9.84-1.101-15.417,4.483,3.606,2.716,8.317,3.068,11.987Z" style="fill: #161b38;"/>
              
              
              
              
              
              
              
              
              
              
              
              
              
              
              
              
              
              
              <polygon id="leg-R26" data-name="leg-R" points="686.812 922.544 686.828 920.345 695.329 919.093 695.4 920.87 686.812 922.544" style="display: none; fill: #161b38;"/>
              <g>
                
                <g>
                  
                  
                  
                  
                  
                  
                  
                  
                  
                  
                  <rect id="leg-L29" data-name="leg-L" x="499.618" y="1023.144" width=".866" height=".866" transform="translate(-577.317 653.388) rotate(-45)" style="display: none; fill: #161b38;"/>
                  <rect id="leg-L30" data-name="leg-L" x="598.811" y="1064.781" width=".866" height=".866" transform="translate(-577.705 735.724) rotate(-45)" style="display: none; fill: #161b38;"/>
                  
                </g>
              </g>
              
              
              <g>
                
                
                <rect id="leg-R46" data-name="leg-R" x="663.716" y="996.203" width=".866" height=".866" transform="translate(-510.203 761.532) rotate(-45)" style="display: none; fill: #0e0a0c;"/>
              </g>
              
              <g>
                
                <polygon id="arm-L9" data-name="arm-L" points="544.29 735.773 545.142 735.773 545.965 735.794 545.142 735.815 544.29 735.815 543.466 735.794 544.29 735.773" style="fill: #0e0a0c;"/>
              </g>
            </g>
            <g>
              <path id="arm-L10" data-name="arm-L" d="M404.176,915.214c-1.272.091-1.737-.958-1.395-3.146.384,1.582-.013,2.597-1.191,3.044-.468,6.705,3.377,11.584,5.488,19.398-4.989-1.99-6.462-7.65-7.724-12.294-3.313-12.19-2.306-24.559.449-36.698,3.111-13.707,6.101-26.32,12.97-39.2,15.567-3.699,34.12-1.32,46.878,9.555,11.877,16.122,7.086,41.643,2.724,62.545-.556,2.666-4.228,3.841-6.291,3.346-2.214-.531-4.986-2.72-5.453-5.819l-3.317-21.999c-.402-2.666-2.136-4.877-3.986-5.487-9.086-2.998-19.013,18.746-18.21,31.361l7.236,18.53c1.521,3.896.121,7.756-3.746,9.368-3.648,1.521-6.418-.527-9.036-4.124-6.438-8.848-12.767-17.3-15.395-28.381Z" style="fill: #e89359;"/>
              <path id="arm-L11" data-name="arm-L" d="M501.768,755.171l-2.775,8.744c-3.416,15.666-8.174,30.14-16.251,45.296-14.619-11.128-32.611-15.972-52.52-15.927l12.867-38.403,14.482-30.478c.519-.813,1.45-1.976,2.061-1.717,10.152,4.293,38.228,17.003,41.758,26.374.842,2.237.85,3.701.377,6.109Z" style="fill: #e89359;"/>
              
              <path id="arm-L12" data-name="arm-L" d="M466.462,829.255c2.8,2.659,2.152,6.103-1.946,10.33-1.487,7.201-4.265,10.043-8.334,8.527-13.663-6.534-32.631-10.52-46.602-3.799l4.874-17.896c.55-2.021,1.831-7.169,4.537-7.672,16.767-2.55,33.986,1.472,47.47,10.51Z" style="fill: #db3720;"/>
              
              
              <path id="arm-L13" data-name="arm-L" d="M476.631,809.772l1.594,2.465c-1.165,4.326-7.165,15.446-12.263,12.456-14.213-7.797-29.642-11.171-46.646-9.479l2.91-11.571c3.405-13.542,37.588-5.262,54.406,6.13Z" style="fill: #db3720;"/>
              
              <path id="arm-L14" data-name="arm-L" d="M501.768,755.171c-3.155-7.168-7.517-12.836-14.657-16.277l-29.54-14.49,5.566-13.622c16.504,8.382,32.26,15.69,46.647,26.792l-8.016,17.598Z" style="fill: #925b3e;"/>
              
              <path id="arm-L15" data-name="arm-L" d="M456.182,848.112c4.443-1.784,4.456-5.82,6.129-9.585,1.348-3.033,4.996-5.134,4.15-9.272,3.477,2.33,8.247,5.377,6.627,10.75-1.563,5.182-4.611,10.047-7.846,14.989l-9.06-6.881Z" style="fill: #ad231b;"/>
              <path id="arm-L16" data-name="arm-L" d="M465.962,824.693c5.744-3.147,8.062-8.996,10.67-14.921,2.747,1.861,7.032,4.409,6.232,8.266-1.153,5.565-4.695,10.4-7.214,15.017-3.368-3.311-5.994-6.336-9.687-8.362Z" style="fill: #ad231b;"/>
              
              <path id="arm-L17" data-name="arm-L" d="M404.176,915.214l-2.586-.102c.184-2.642-.836-5.831.41-8.63,3.249,2.443,1.568,6.168,2.176,8.732Z" style="fill: #401e20;"/>
              
              <g>
                
                
                
                
                
                
                
                
                
                
                
                
                
                
                
                
                
                
                <polygon id="torso73" data-name="torso" points="680.68 784.169 678.224 784.172 679.459 782.869 680.68 784.169" style="display: none; fill: #401e20;"/>
                
                <path id="arm-L18" data-name="arm-L" d="M528.003,777.135l-.225-1.297c.878.115.815.92.225,1.297Z" style="fill: #ad231b;"/>
                
                <path id="arm-L19" data-name="arm-L" d="M526.588,765.852c-.157-.788.566-1.055.966-1.42l-.966,1.42Z" style="fill: #ad231b;"/>
                
                
                
                
              </g>
            </g>
            <g>
              
              
              
              
              
              
              
              
              
              
              
              
              
              
              
              <g>
                
                
                
                
                <rect id="head319" data-name="head" x="762.909" y="332.464" width=".866" height=".866" transform="translate(-11.816 637.268) rotate(-45)" style="display: none; fill: #372b3d;"/>
              </g>
              
              
            </g>
          </g>
        </g>
      </g>
    </g>
    <g>
      
      <circle id="head336" data-name="head" cx="821.511" cy="512.302" r="1.364" style="display: none; fill: #140f1f;"/>
      
    </g>
  </g>
</svg>