<?xml version="1.0" encoding="UTF-8"?>
<svg id="Layer_1" xmlns="http://www.w3.org/2000/svg" version="1.1" viewBox="0 0 1273.127 1273.127">
  <!-- Generator: Adobe Illustrator 30.6.0, SVG Export Plug-In . SVG Version: 2.1.4 Build 109)  -->
  <rect id="canvas-frame" width="1273.127" height="1273.127" style="fill: #fff; opacity: 0;"/>
  <g id="Generative_Object">
    
    
    
    
    
    
    
    
    
    
    
    
    
    
    
    
    
    
    
    
    
    
    
    
    
    
    
    
    
    
    
    
    
    
    
    
    
    
    
    
    
    
    
    
    
    
    
    
    
    
    
    
    
    
    
    
    
    
    
    
    
    
    
    
    
    
    
    
    
    
    
    
    
    
    
    
    <rect id="base-bg" x="10.819" y="10.213" width="1254" height="1254" style="display: none; fill: #fdfdfd;"/>
    
    
    
    <g>
      
      <g>
        <polygon id="leg-L" points="464.537 1223.801 465.15 1224.413 464.537 1225.459 463.925 1224.413 464.537 1223.801" style="display: none; fill: #fdfdfd;"/>
        <g>
          <g>
            <g id="streamers-outline">
              <path id="streamers" d="M391.347,429.479l-3.505-10.004c-6.299-1.498-10.708,2.377-17.988,2.02,11.937-12.252,30.048-9.116,29.114-21.209,2.712.628,4.95.821,8.268,2.131,4.652,1.837,10.805.859,15.208,4.493,1.221,1.008.586,4.956-1.222,4.752-10.338-1.171-19.798-1.935-30.107,1.59,3.866,2.64,7.756-.244,11.597.003l19.256,1.242c.835,2.555.997,4.544.184,7.191-10.966,1.052-20.843,3.726-30.806,7.791Z" style="fill: #0e0a0c; stroke: #0e0a0c; stroke-linecap: round; stroke-linejoin: round; stroke-width: 14px;"/>
              <path id="streamers1" data-name="streamers" d="M412.21,340.732l-.38,9.442c3.17,4.8,8.1,8.861,9.533,14.354,3.242,12.425,1.679,24.635-3.936,35.263l-6.256-1.628c3.673-8.001,3.182-16.525-1.218-24.194-5.135-8.952.108-18.31-3.83-22.307l1.707-6.901c.617-2.496,2.306-3.817,4.378-4.028Z" style="fill: #0e0a0c; stroke: #0e0a0c; stroke-linecap: round; stroke-linejoin: round; stroke-width: 14px;"/>
              <path id="streamers2" data-name="streamers" d="M406.175,449.051l2.538,1.823c-.993,8.049-4.043,15.592-9.151,22.63,8.426-8.491,18.57-9.763,15.679,4.984-9.801,16.544-15.495,34.163-18.628,53.65l-23.355-16.119c-2.574-1.776-4.668-12.079-25.959-11.739,12.647-23.6,36.381-43.998,58.876-55.23Z" style="fill: #0e0a0c; stroke: #0e0a0c; stroke-linecap: round; stroke-linejoin: round; stroke-width: 14px;"/>
              <path id="streamers3" data-name="streamers" d="M398.969,400.285c6.512,4.141-2.42,10.564-8.234,11.543-2.915,2.16-6.537,4.006-10.868,5.537,2.666-.563,7.084-1.429,9.386.386,1.46,1.151,5.451,10.7,2.094,11.728-17.809,7.267-33.114,18.56-44.488,34.069-4.035-6.951-5.964-13.581-6.335-21.006-8.55-3.581-15.419-8.118-23.406-13.6,22.447-21.438,52.258-35.51,81.851-28.657Z" style="fill: #0e0a0c; stroke: #0e0a0c; stroke-linecap: round; stroke-linejoin: round; stroke-width: 14px;"/>
              <path id="streamers4" data-name="streamers" d="M409.304,461.906c-1.351,1.66-3.375,2.546-4.009,5.047l6.384-4.946,17.424-13.757c2.344,3.027,3.774,5.471,4.148,8.606-7.363,6.359-13.118,13.374-18.01,21.632-2.992-3.275-1.114-8.202-3.512-8.987-4.081-1.336-13.85,8.694-19.953,15.322,3.036-12.881,15.679-22.479,14.399-35.772,5.933-2.963,11.665-8.025,18.568-9.207,1.844.503,3.74,4.898,2.884,6.749-6.603,4.277-13.39,9.251-18.324,15.312Z" style="fill: #0e0a0c; stroke: #0e0a0c; stroke-linecap: round; stroke-linejoin: round; stroke-width: 14px;"/>
            </g>
            <path id="streamers5" data-name="streamers" d="M391.347,429.479l-3.505-10.004c-6.299-1.498-10.708,2.377-17.988,2.02,11.937-12.252,30.048-9.116,29.114-21.209,2.712.628,4.95.821,8.268,2.131,4.652,1.837,10.805.859,15.208,4.493,1.221,1.008.586,4.956-1.222,4.752-10.338-1.171-19.798-1.935-30.107,1.59,3.866,2.64,7.756-.244,11.597.003l19.256,1.242c.835,2.555.997,4.544.184,7.191-10.966,1.052-20.843,3.726-30.806,7.791Z" style="fill: #ad231b;"/>
            <g>
              
              
              
              
              
              
              
              <path id="streamers6" data-name="streamers" d="M412.21,340.732l-.38,9.442c3.17,4.8,8.1,8.861,9.533,14.354,3.242,12.425,1.679,24.635-3.936,35.263l-6.256-1.628c3.673-8.001,3.182-16.525-1.218-24.194-5.135-8.952.108-18.31-3.83-22.307l1.707-6.901c.617-2.496,2.306-3.817,4.378-4.028Z" style="fill: #2a1f32;"/>
              
              
              
              
              <g>
                
                <g>
                  
                  
                  
                  
                  
                  
                  
                  
                  
                  
                  <circle id="head248" data-name="head" cx="806.816" cy="132.674" r="1.364" style="display: none; fill: #0e0a0c;"/>
                  
                  <polygon id="head250" data-name="head" points="442.494 231.879 442.516 232.678 442.516 233.505 442.494 234.304 442.472 233.505 442.472 232.678 442.494 231.879" style="display: none; fill: #0e0a0c;"/>
                  <rect id="head251" data-name="head" x="689.432" y="125.505" width=".866" height=".866" transform="translate(113.005 524.695) rotate(-45)" style="display: none; fill: #0e0a0c;"/>
                  
                  <rect id="head253" data-name="head" x="787.401" y="189.185" width=".866" height=".866" transform="translate(96.671 612.621) rotate(-45)" style="display: none; fill: #0e0a0c;"/>
                  <rect id="head254" data-name="head" x="591.464" y="124.281" width=".866" height=".866" transform="translate(85.177 455.062) rotate(-45)" style="display: none; fill: #0e0a0c;"/>
                  <rect id="head255" data-name="head" x="395.526" y="255.314" width=".866" height=".866" transform="translate(-64.867 354.892) rotate(-45)" style="display: none; fill: #0e0a0c;"/>
                  <rect id="head256" data-name="head" x="844.958" y="250.415" width=".866" height=".866" transform="translate(70.233 671.253) rotate(-45)" style="display: none; fill: #0e0a0c;"/>
                  
                  <rect id="head258" data-name="head" x="843.733" y="247.966" width=".866" height=".866" transform="translate(71.606 669.67) rotate(-45)" style="display: none; fill: #0e0a0c;"/>
                  <rect id="head259" data-name="head" x="688.208" y="123.056" width=".866" height=".866" transform="translate(114.378 523.112) rotate(-45)" style="display: none; fill: #0e0a0c;"/>
                  
                  
                  <rect id="head262" data-name="head" x="712.7" y="105.912" width=".866" height=".866" transform="translate(133.675 535.409) rotate(-45)" style="display: none; fill: #0e0a0c;"/>
                  <rect id="head263" data-name="head" x="713.925" y="103.462" width=".866" height=".866" transform="translate(135.765 535.557) rotate(-45)" style="display: none; fill: #0e0a0c;"/>
                  <rect id="head264" data-name="head" x="792.3" y="233.271" width=".866" height=".866" transform="translate(66.932 628.997) rotate(-45)" style="display: none; fill: #0e0a0c;"/>
                </g>
              </g>
            </g>
            <g>
              <path id="streamers7" data-name="streamers" d="M406.175,449.051l2.538,1.823c-.993,8.049-4.043,15.592-9.151,22.63,8.426-8.491,18.57-9.763,15.679,4.984-9.801,16.544-15.495,34.163-18.628,53.65l-23.355-16.119c-2.574-1.776-4.668-12.079-25.959-11.739,12.647-23.6,36.381-43.998,58.876-55.23Z" style="fill: #db3720;"/>
              <rect id="streamers8" data-name="streamers" x="390.628" y="485.54" width=".866" height=".866" transform="translate(-229.096 418.86) rotate(-45)" style="fill: #ad231b;"/>
            </g>
            <g>
              <path id="streamers9" data-name="streamers" d="M398.969,400.285c6.512,4.141-2.42,10.564-8.234,11.543-2.915,2.16-6.537,4.006-10.868,5.537,2.666-.563,7.084-1.429,9.386.386,1.46,1.151,5.451,10.7,2.094,11.728-17.809,7.267-33.114,18.56-44.488,34.069-4.035-6.951-5.964-13.581-6.335-21.006-8.55-3.581-15.419-8.118-23.406-13.6,22.447-21.438,52.258-35.51,81.851-28.657Z" style="fill: #db3720;"/>
              <rect id="streamers10" data-name="streamers" x="366.136" y="423.085" width=".866" height=".866" transform="translate(-192.107 383.249) rotate(-45)" style="fill: #ad231b;"/>
              <rect id="streamers11" data-name="streamers" x="368.585" y="421.861" width=".866" height=".866" transform="translate(-190.524 384.622) rotate(-45)" style="fill: #ad231b;"/>
            </g>
            <g>
              <path id="streamers12" data-name="streamers" d="M409.304,461.906l2.375.101c2.441,3.769-7.232,9.828-7.618,2.862-.093-1.672,3.357-5.183,5.243-2.963Z" style="fill: #401e20;"/>
              <path id="streamers13" data-name="streamers" d="M409.304,461.906c-1.351,1.66-3.375,2.546-4.009,5.047l6.384-4.946,17.424-13.757c2.344,3.027,3.774,5.471,4.148,8.606-7.363,6.359-13.118,13.374-18.01,21.632-2.992-3.275-1.114-8.202-3.512-8.987-4.081-1.336-13.85,8.694-19.953,15.322,3.036-12.881,15.679-22.479,14.399-35.772,5.933-2.963,11.665-8.025,18.568-9.207,1.844.503,3.74,4.898,2.884,6.749-6.603,4.277-13.39,9.251-18.324,15.312Z" style="fill: #ad231b;"/>
              <circle id="streamers14" data-name="streamers" cx="403.919" cy="469.441" r="1.054" style="fill: #401e20;"/>
            </g>
          </g>
          <g>
            
            <g>
              
              <g>
                
                
                
                <g>
                  
                  <g>
                    
                    
                    
                    
                    <rect id="head291" data-name="head" x="487.372" y="282.255" width=".866" height=".866" transform="translate(-57.016 427.728) rotate(-45)" style="display: none; fill: #db3720;"/>
                    <rect id="head292" data-name="head" x="442.061" y="334.913" width=".866" height=".866" transform="translate(-107.522 411.111) rotate(-45)" style="display: none; fill: #401e20;"/>
                    <circle id="head293" data-name="head" cx="440.657" cy="338.408" r="1.054" style="display: none; fill: #401e20;"/>
                  </g>
                </g>
              </g>
            </g>
            <g>
              
              
              
              
              
              
              
              
              
              
              
              
              
              
              
              
              
              
              
              
              
              
              
              
              
              
              
              
              
              
              
              <polygon id="leg-R26" data-name="leg-R" points="686.812 922.544 686.828 920.345 695.329 919.093 695.4 920.87 686.812 922.544" style="display: none; fill: #161b38;"/>
              <g>
                
                <g>
                  
                  
                  
                  
                  
                  
                  
                  
                  
                  
                  <rect id="leg-L29" data-name="leg-L" x="499.618" y="1023.144" width=".866" height=".866" transform="translate(-577.317 653.388) rotate(-45)" style="display: none; fill: #161b38;"/>
                  <rect id="leg-L30" data-name="leg-L" x="598.811" y="1064.781" width=".866" height=".866" transform="translate(-577.705 735.724) rotate(-45)" style="display: none; fill: #161b38;"/>
                  
                </g>
              </g>
              
              
              <g>
                
                
                <rect id="leg-R46" data-name="leg-R" x="663.716" y="996.203" width=".866" height=".866" transform="translate(-510.203 761.532) rotate(-45)" style="display: none; fill: #0e0a0c;"/>
              </g>
              
              <g>
                
                <polygon id="arm-L9" data-name="arm-L" points="544.29 735.773 545.142 735.773 545.965 735.794 545.142 735.815 544.29 735.815 543.466 735.794 544.29 735.773" style="display: none; fill: #0e0a0c;"/>
              </g>
            </g>
            <g>
              
              
              
              
              
              
              
              
              
              
              
              
              
              
              
              <g>
                
                
                
                
                
                
                
                
                
                
                
                
                
                
                
                
                
                
                <polygon id="torso73" data-name="torso" points="680.68 784.169 678.224 784.172 679.459 782.869 680.68 784.169" style="display: none; fill: #401e20;"/>
                
                
                
                
                
                
                
                
              </g>
            </g>
            <g>
              
              
              
              
              
              
              
              
              
              
              
              
              
              
              
              <g>
                
                
                
                
                <rect id="head319" data-name="head" x="762.909" y="332.464" width=".866" height=".866" transform="translate(-11.816 637.268) rotate(-45)" style="display: none; fill: #372b3d;"/>
              </g>
              
              
            </g>
          </g>
        </g>
      </g>
    </g>
    <g>
      
      <circle id="head336" data-name="head" cx="821.511" cy="512.302" r="1.364" style="display: none; fill: #140f1f;"/>
      
    </g>
  </g>
</svg>